<svg width="160" height="190" viewBox="0 0 160 190" fill="none" xmlns="http://www.w3.org/2000/svg">
<path d="M5.92108 7.91464C3.84129 15.0339 2.9233 22.3415 3.19055 29.6507C3.24818 34.3239 3.5704 39.5053 4.12491 45.0125C4.6783 50.9109 5.73702 56.7703 7.29343 62.5487C8.14537 65.6572 9.24915 68.7167 10.5976 71.7074C11.9516 74.8257 13.6498 77.8387 15.6717 80.7099C17.7016 83.6712 20.1582 86.427 22.9903 88.9197C25.8067 91.4708 29.0395 93.6996 32.5997 95.5449L33.199 95.8374C33.2612 95.6503 33.2838 95.4422 33.3354 95.2404C35.3324 87.6232 40.3314 80.7325 47.5805 75.605C51.2916 73.0364 55.6089 71.1051 60.2695 69.9286C65.1502 68.6936 70.3386 68.491 75.3395 69.3399C77.993 69.7228 80.5536 70.4455 82.9247 71.4808C85.5925 72.6252 87.9017 74.247 89.6769 76.2229C91.3407 78.1766 92.4755 80.393 93.0071 82.7273C93.5387 85.0617 93.4552 87.4614 92.762 89.7694C91.5035 93.9503 88.4747 97.6445 84.2021 100.21C80.3063 102.577 75.8732 104.301 71.1563 105.283C66.5284 106.281 61.7391 106.695 56.9574 106.511C50.9905 106.27 45.1195 105.209 39.5965 103.372C39.5992 104.465 39.6917 105.556 39.8734 106.639C40.8884 113.034 43.6477 119.164 47.9517 124.585C51.9226 129.663 56.8213 134.223 62.4815 138.112C67.4026 141.529 72.8217 144.447 78.6186 146.8C83.6021 148.708 88.7888 150.249 94.1158 151.403C102.426 153.278 110.967 154.41 119.586 154.779C125.365 155.064 131.162 154.994 136.929 154.569C141.555 154.203 144.89 153.809 147.469 153.452C149.714 153.173 151.184 152.94 152.33 152.799L150.761 152.209C146.289 150.528 142.279 148.947 138.936 147.548C132.269 144.741 128.16 142.713 128.519 142.051C128.878 141.39 133.283 142.292 140.306 144.261C143.836 145.237 147.973 146.482 152.552 147.936L154.288 148.486C155.039 148.717 155.763 148.999 156.454 149.33C156.892 149.549 157.307 149.798 157.692 150.074C158.184 150.425 158.612 150.83 158.965 151.276C159.692 152.196 160.037 153.28 159.949 154.371C159.731 155.753 159.192 157.091 158.361 158.312L156.73 161.267C147.307 177.522 138.484 190.199 136.994 189.513C135.503 188.828 141.908 175.09 151.321 158.82L152.586 156.688C151.441 157.081 150.266 157.413 149.067 157.682C145.515 158.541 141.887 159.181 138.216 159.596C132.182 160.329 126.078 160.612 119.981 160.44C110.854 160.245 101.788 159.181 92.9721 157.27C87.1641 156.031 81.5125 154.356 76.0908 152.268C69.6666 149.697 63.6669 146.485 58.2316 142.706C51.9213 138.374 46.4711 133.283 42.071 127.611C37.1185 121.326 33.9727 114.22 32.8652 106.816C32.535 104.683 32.4727 102.529 32.679 100.386C31.8641 99.9965 31.0492 99.6074 30.2787 99.1777C26.3252 97.063 22.7423 94.527 19.6264 91.638C16.5915 88.8465 13.9694 85.778 11.8132 82.4944C9.71951 79.377 7.98053 76.1118 6.61764 72.7389C5.2852 69.595 4.21139 66.3828 3.40325 63.1235C1.95673 57.1823 1.05391 51.1622 0.702148 45.1121C0.321972 39.4838 0.199863 34.2747 0.335825 29.4846C0.392021 22.0359 1.80766 14.6329 4.5369 7.5152C5.29335 5.636 6.22702 3.80637 7.32968 2.04244C8.12445 0.861135 8.52852 0.296977 8.69125 0.319628C8.85399 0.342277 7.5045 3.00737 5.94221 7.94427L5.92108 7.91464ZM40.4306 96.8994C40.2731 97.4668 40.1734 98.0466 40.0737 98.6264C45.3939 100.451 51.0862 101.465 56.8647 101.617C61.0849 101.72 65.3008 101.301 69.3663 100.373C73.3663 99.4928 77.1134 97.9823 80.3925 95.9284C83.5216 93.9902 85.719 91.2307 86.606 88.1255C87.064 86.6047 87.121 85.0234 86.7734 83.4846C86.4257 81.9459 85.6811 80.4842 84.5882 79.1948C82.0698 76.7737 78.5262 75.1993 74.6477 74.7782C70.6716 74.1457 66.5598 74.3482 62.7045 75.3663C58.8873 76.4005 55.366 78.0469 52.3516 80.2071C49.3088 82.3617 46.7228 84.9051 44.6968 87.736C42.6422 90.5642 41.1926 93.6523 40.4095 96.8698" fill="#D88F1A"/>
</svg>
