<svg width="77" height="76" viewBox="0 0 77 76" fill="none" xmlns="http://www.w3.org/2000/svg">
<g clip-path="url(#clip0_501_4140)">
<path d="M3.55972 42.245C19.8198 35.6431 37.497 32.5589 55.0353 33.2258C59.9811 33.4147 64.8936 33.9371 69.7894 34.6317C70.3729 34.7151 70.6619 34.2816 70.4285 33.7815C70.1562 33.1869 69.3504 32.67 68.728 32.5589C51.0953 29.4858 32.5345 30.675 15.3019 35.393C10.4394 36.7212 5.66031 38.355 0.992329 40.2555C0.303245 40.5334 1.22017 41.517 1.48691 41.7281C2.04262 42.1616 2.85952 42.5339 3.55416 42.2505L3.55972 42.245Z" fill="#705959"/>
<path d="M64.5831 41.3059C68.2675 39.6999 71.9074 37.9716 75.4806 36.1322C75.7196 36.0044 75.7307 35.7043 75.664 35.482C75.0083 33.4815 73.4134 32.0866 71.6962 30.9696C69.7401 29.7026 67.6007 28.6857 65.5556 27.5854C61.2378 25.268 56.9643 22.7951 52.5409 20.6723C52.1296 20.4723 51.3072 20.3167 51.1071 20.8612C50.9071 21.4058 51.7629 22.0394 52.1241 22.2561C55.8196 24.4623 59.6984 26.385 63.4939 28.4245C65.3389 29.4137 67.1783 30.3973 69.0177 31.392C70.5348 32.2089 72.1297 33.0369 72.7076 34.7707L72.891 34.1205C69.3289 35.971 65.7057 37.7049 62.0213 39.322C61.3433 39.6221 62.238 40.5835 62.5214 40.8002C63.066 41.2225 63.9107 41.6226 64.5998 41.3226L64.5831 41.3059Z" fill="#705959"/>
</g>
<defs>
<clipPath id="clip0_501_4140">
<rect width="49.8179" height="57.5825" fill="white" transform="translate(35.6914 75.9434) rotate(-135)"/>
</clipPath>
</defs>
</svg>
