<svg width="101" height="54" viewBox="0 0 101 54" fill="none" xmlns="http://www.w3.org/2000/svg">
<g clip-path="url(#clip0_501_4145)">
<path d="M55.4815 0.621791C45.4373 -0.252436 35.634 2.83012 27.4255 7.22402C19.3374 11.5587 12.3105 17.1547 6.87249 23.593C4.11336 26.8623 1.68119 30.4502 0.774863 34.3569C-0.0683652 37.9722 0.453633 41.8607 2.94316 45.0161C5.4327 48.1715 9.34482 50.0156 13.4577 51.2586C18.2991 52.7248 23.4961 53.3759 28.6645 53.4624C38.8693 53.6309 49.1716 51.8233 58.7569 49.1459C68.3421 46.4686 76.9694 42.8214 84.9658 38.1726C92.3196 33.9016 99.6678 28.21 100.345 20.5651C100.654 17.0636 99.4727 13.5348 96.444 10.9076C93.4153 8.28038 89.3081 6.89164 85.1665 5.94911C74.9331 3.62239 63.8965 3.73622 53.4623 5.0339C43.0281 6.33158 32.0374 9.10452 21.6892 12.0641C19.1825 12.779 16.6872 13.5166 14.1919 14.2497C13.8765 14.3408 13.3086 14.6504 13.6011 14.9555C13.8937 15.2605 14.7197 15.0739 15.0639 14.9737C24.8671 12.1051 34.7105 9.24112 44.8923 7.3333C55.0742 5.42549 65.3363 4.5376 75.5755 5.61672C83.8357 6.4864 94.3331 8.54447 97.3044 15.6202C98.6639 18.8576 98.2681 22.4319 96.748 25.5873C95.1419 28.9249 92.1992 31.7752 88.9238 34.1794C85.6484 36.5835 81.7248 38.81 77.8241 40.7634C73.9235 42.7167 69.6787 44.5289 65.3707 46.0497C56.6975 49.1141 47.4106 51.2495 37.9687 52.1147C32.9552 52.5745 27.8499 52.6292 22.8594 51.9872C18.3278 51.4044 13.733 50.3025 9.88976 48.2489C6.15546 46.2592 3.63725 43.3178 2.86286 39.789C2.08846 36.2602 3.08083 32.4172 4.96806 29.066C6.89544 25.6374 9.66605 22.4729 12.6145 19.5497C15.5629 16.6265 18.8154 13.9811 22.3776 11.5724C29.4446 6.78691 37.9515 2.60701 47.3073 1.60985C49.5903 1.36397 51.9135 1.32299 54.2023 1.52334C54.7013 1.56432 55.3036 1.50057 55.6822 1.20916C55.9633 0.990605 55.9576 0.66277 55.4815 0.621791Z" fill="#705959"/>
</g>
<defs>
<clipPath id="clip0_501_4145">
<rect width="100" height="53" fill="white" transform="translate(0.408203 0.47168)"/>
</clipPath>
</defs>
</svg>
