<svg width="172" height="91" viewBox="0 0 172 91" fill="none" xmlns="http://www.w3.org/2000/svg">
<g clip-path="url(#clip0_501_4107)">
<path d="M94.7267 0.258153C77.4508 -1.24288 60.5892 4.04982 46.4704 11.5941C32.5589 19.0367 20.4726 28.6448 11.1193 39.6993C6.37361 45.3125 2.19028 51.473 0.631398 58.1807C-0.818955 64.3881 0.0788819 71.0646 4.36088 76.4824C8.64287 81.9002 15.3717 85.0664 22.4459 87.2007C30.7731 89.718 39.712 90.836 48.6016 90.9845C66.1538 91.2738 83.8738 88.1701 100.36 83.5732C116.847 78.9763 131.686 72.7142 145.44 64.7321C158.088 57.399 170.727 47.6266 171.891 34.5004C172.424 28.4885 170.392 22.4296 165.182 17.9187C159.973 13.4078 152.909 11.0234 145.785 9.40506C128.184 5.41013 109.201 5.60558 91.2538 7.83367C73.3069 10.0618 54.403 14.8228 36.6041 19.9045C32.2925 21.1319 28.0006 22.3984 23.7088 23.657C23.1661 23.8134 22.1894 24.345 22.6925 24.8688C23.1957 25.3926 24.6165 25.0721 25.2085 24.9001C42.07 19.9748 59.0007 15.0574 76.5135 11.7817C94.0262 8.506 111.677 6.98152 129.289 8.83436C143.496 10.3276 161.551 13.8612 166.662 26.0102C169.001 31.5687 168.32 37.7057 165.705 43.1235C162.943 48.854 157.881 53.748 152.248 57.8759C146.614 62.0037 139.865 65.8266 133.156 69.1805C126.447 72.5344 119.146 75.6459 111.736 78.257C96.8184 83.5185 80.8448 87.185 64.6048 88.6704C55.9816 89.46 47.2005 89.5539 38.6168 88.4515C30.8224 87.4509 22.9195 85.5589 16.309 82.0331C9.88603 78.6167 5.5547 73.5663 4.22275 67.5075C2.89079 61.4486 4.59767 54.8503 7.8437 49.0964C11.1588 43.2095 15.9242 37.7761 20.9955 32.757C26.0668 27.738 31.6611 23.1958 37.7881 19.0601C49.9434 10.8435 64.5752 3.66674 80.6672 1.95463C84.594 1.53247 88.5899 1.4621 92.5265 1.80609C93.3849 1.87645 94.4209 1.767 95.0721 1.26666C95.5555 0.8914 95.5456 0.328513 94.7267 0.258153V0.258153Z" fill="#F47664"/>
</g>
<defs>
<clipPath id="clip0_501_4107">
<rect width="172" height="91" fill="white"/>
</clipPath>
</defs>
</svg>
