<svg width="149" height="82" viewBox="0 0 149 82" fill="none" xmlns="http://www.w3.org/2000/svg">
<path d="M49.3418 61.8836H39.5309C39.2482 61.8836 39.0868 61.7021 39.0464 61.3392C39.1675 61.0972 39.3088 60.9762 39.4703 60.9762C40.8027 60.7343 41.6707 60.21 42.0744 59.4035C42.4782 58.5969 42.6801 58.0122 42.6801 57.6493V48.8783C42.5993 44.4826 41.8928 41.2969 40.5604 39.3208C39.2684 37.3448 37.6131 36.3569 35.5944 36.3569H35.4733C33.8179 36.3569 32.1222 37.1231 30.3861 38.6555C28.65 40.1476 27.4993 42.5671 26.9341 45.9143V57.6493C26.9341 58.0122 27.136 58.5969 27.5397 59.4035C27.9434 60.21 28.8115 60.7343 30.1438 60.9762C30.3457 60.9762 30.487 61.0972 30.5678 61.3392C30.5678 61.6214 30.4063 61.8029 30.0833 61.8836H20.2723C19.9897 61.8836 19.8282 61.7424 19.7878 61.4601V61.3392C19.8282 61.0972 19.9695 60.9762 20.2118 60.9762C21.5441 60.7343 22.392 60.21 22.7554 59.4035C23.1591 58.5969 23.361 58.0122 23.361 57.6493V48.4548C23.2802 44.1802 22.5939 41.0952 21.3019 39.1999C20.0099 37.3045 18.3546 36.3569 16.3358 36.3569H16.2147C14.4786 36.3569 12.7223 37.1634 10.9459 38.7765C9.20978 40.3895 8.09949 42.9704 7.615 46.5191V57.6493C7.615 58.0122 7.81687 58.5969 8.22061 59.4035C8.62435 60.21 9.4924 60.7343 10.8248 60.9762C11.0266 60.9762 11.1477 61.0972 11.1881 61.3392V61.4601C11.1881 61.7021 11.0468 61.8432 10.7642 61.8836H0.89268C0.690809 61.8836 0.549499 61.7424 0.46875 61.4601V61.3392C0.46875 61.1375 0.61006 61.0165 0.89268 60.9762C2.22503 60.7343 3.07289 60.21 3.43626 59.4035C3.84 58.5969 4.04187 58.0122 4.04187 57.6493V42.1034C4.04187 41.2968 3.63813 40.8734 2.83065 40.8331C2.62877 40.8331 2.40672 40.8734 2.16447 40.9541H2.10391C1.98279 40.9541 1.86166 40.8734 1.74054 40.7121V40.5911C1.74054 40.4298 1.78091 40.3088 1.86166 40.2282L6.52489 36.1149C6.64601 35.9939 6.78732 35.9335 6.94882 35.9335C7.31219 35.9335 7.53425 36.1754 7.615 36.6593V39.7443C7.615 40.1475 7.85724 40.3693 8.34173 40.4097C8.54361 40.4097 8.72529 40.3088 8.88679 40.1072C10.5825 37.365 13.0655 35.873 16.3358 35.631H17.1231C18.8592 35.631 20.2925 35.9536 21.423 36.5988C22.5535 37.2037 23.4619 37.9497 24.1483 38.8369C24.8346 39.6838 25.3393 40.5306 25.6623 41.3775C25.9045 41.7404 26.2074 41.9219 26.5707 41.9219C26.8937 41.9219 27.1763 41.7404 27.4186 41.3775C29.3162 37.6674 32.0414 35.752 35.5944 35.631L36.6239 35.5705C39.8135 35.5705 42.1956 36.7601 43.7702 39.1394C45.3851 41.4783 46.2128 44.7044 46.2532 48.8178V57.6493C46.2532 57.9316 46.4349 58.4961 46.7982 59.343C47.202 60.1898 48.07 60.7343 49.4024 60.9762C49.6042 60.9762 49.7456 61.0972 49.8263 61.3392V61.4601C49.8263 61.7021 49.6648 61.8432 49.3418 61.8836Z" fill="black"/>
<path d="M63.5392 62.2465C60.2285 62.2465 57.5234 61.077 55.424 58.7381C53.3245 56.3588 52.2344 53.0924 52.1537 48.9388V42.1034C52.1537 41.2968 51.7499 40.8734 50.9424 40.8331C50.7406 40.8331 50.5387 40.8734 50.3368 40.9541H50.2763C50.1148 40.9541 49.9936 40.8734 49.9129 40.7121L49.8523 40.5306C49.8523 40.4097 49.8927 40.3088 49.9734 40.2282L54.6367 36.1149C54.7578 35.9939 54.8991 35.9335 55.0606 35.9335C55.424 35.9335 55.646 36.1553 55.7268 36.5988V49.0597C55.8075 52.0036 56.292 54.403 57.1803 56.258C58.0685 58.0727 59.1788 59.4035 60.5111 60.2503C61.8839 61.0972 63.2364 61.5206 64.5688 61.5206C65.8204 61.5206 67.072 61.1577 68.3236 60.4318C69.6155 59.7059 70.7056 58.5566 71.5939 56.9839C72.5225 55.3708 73.1079 53.3142 73.3502 50.8139V42.1034C73.3502 41.2968 72.9262 40.8734 72.0784 40.8331C71.9169 40.8331 71.715 40.8734 71.4728 40.9541H71.4122C71.2507 40.9541 71.1296 40.8734 71.0488 40.7121L70.9883 40.5306C70.9883 40.4097 71.0286 40.3088 71.1094 40.2282L75.7726 36.1149C75.8937 35.9939 76.035 35.9335 76.1965 35.9335C76.5599 35.9335 76.782 36.1553 76.8627 36.5988L76.9233 41.4985V55.7741C76.9233 56.5806 77.327 57.004 78.1345 57.0444L78.8612 56.9234C78.9824 56.9234 79.0833 57.004 79.1641 57.1653L79.2246 57.3468C79.2246 57.4678 79.1842 57.5484 79.1035 57.5888L74.4403 61.7021C74.2788 61.8231 74.1375 61.8836 74.0163 61.8836C73.653 61.8836 73.4309 61.6618 73.3502 61.2182V58.0727C73.229 57.5888 72.9868 57.3468 72.6234 57.3468C72.3812 57.3468 72.1793 57.4678 72.0178 57.7098C70.2817 60.452 67.7987 61.9441 64.5688 62.186L63.5392 62.2465Z" fill="black"/>
<path d="M91.9662 61.8836H82.1552C81.8726 61.8836 81.7111 61.7021 81.6707 61.3392C81.7919 61.0972 81.9332 60.9762 82.0947 60.9762C83.427 60.7343 84.2749 60.1898 84.6382 59.343C85.042 58.4961 85.2439 57.9316 85.2439 57.6493L85.3044 6.99812C85.3044 6.19158 84.8805 5.74799 84.0326 5.66734L83.3059 5.78831C83.1848 5.78831 83.0838 5.72783 83.0031 5.60685L82.9425 5.36489C82.9425 5.2439 82.9829 5.16325 83.0636 5.12292L87.7269 1.00959C87.848 0.888614 87.9893 0.828125 88.1508 0.828125C88.4738 0.828125 88.6959 1.04992 88.817 1.49352V57.6493C88.817 58.0122 89.0189 58.5969 89.4226 59.4035C89.8263 60.21 90.6944 60.7343 92.0267 60.9762C92.2286 60.9762 92.3699 61.0972 92.4507 61.3392C92.4507 61.6214 92.2892 61.8029 91.9662 61.8836Z" fill="black"/>
<path d="M99.3353 61.8836H89.5243C89.2417 61.8836 89.0802 61.7021 89.0398 61.3392C89.1609 61.0972 89.3023 60.9762 89.4638 60.9762C90.7961 60.7343 91.644 60.1898 92.0073 59.343C92.4111 58.4961 92.6129 57.9316 92.6129 57.6493L92.6735 6.99812C92.6735 6.19158 92.2496 5.74799 91.4017 5.66734L90.675 5.78831C90.5539 5.78831 90.4529 5.72783 90.3722 5.60685L90.3116 5.36489C90.3116 5.2439 90.352 5.16325 90.4327 5.12292L95.096 1.00959C95.2171 0.888614 95.3584 0.828125 95.5199 0.828125C95.8429 0.828125 96.0649 1.04992 96.1861 1.49352V57.6493C96.1861 58.0122 96.3879 58.5969 96.7917 59.4035C97.1954 60.21 98.0635 60.7343 99.3958 60.9762C99.5977 60.9762 99.739 61.0972 99.8198 61.3392C99.8198 61.6214 99.6583 61.8029 99.3353 61.8836Z" fill="black"/>
<path d="M114.021 62.2465C110.428 62.2465 107.4 61.1375 104.937 58.9196C102.515 56.6613 101.304 53.3344 101.304 48.9388C101.304 44.5431 102.515 41.2364 104.937 39.0184C107.4 36.7601 110.428 35.631 114.021 35.631C115.717 35.631 117.615 36.0343 119.714 36.8408C121.854 37.607 123.287 38.9579 124.014 40.8936C124.095 41.1759 124.135 41.438 124.135 41.6799C124.135 42.7688 123.509 43.7568 122.258 44.644C121.047 45.5312 119.553 46.3377 117.776 47.0636C116 47.7491 114.223 48.3742 112.447 48.9388C110.872 49.463 109.681 50.33 108.874 51.5398C108.107 52.7093 107.723 53.9795 107.723 55.3507C107.723 56.8831 108.228 58.2945 109.237 59.5849C110.287 60.8351 111.801 61.5206 113.779 61.6416H114.021C115.273 61.6416 116.504 61.2988 117.716 60.6133C118.967 59.8874 120.037 58.7784 120.925 57.2863C121.248 56.8427 121.632 56.6209 122.076 56.6209C122.399 56.6209 122.702 56.7419 122.985 56.9839C123.307 57.3065 123.469 57.6493 123.469 58.0122C123.469 58.3751 123.328 58.6978 123.045 58.98C120.623 61.1577 117.615 62.2465 114.021 62.2465ZM106.209 54.8062V54.6248C106.209 54.3425 106.31 53.8182 106.512 53.052C106.714 52.2455 107.218 51.4188 108.026 50.572C108.833 49.7251 110.105 48.9992 111.841 48.3943C113.981 47.7491 115.939 46.9224 117.716 45.9143C119.492 44.9061 120.481 43.6358 120.683 42.1034L120.744 41.438C120.744 40.0669 120.34 38.9983 119.533 38.2321C118.765 37.4658 117.877 36.9416 116.868 36.6593C115.858 36.377 114.97 36.2359 114.203 36.2359H114.021C112.649 36.2762 111.296 36.74 109.964 37.6272C108.631 38.474 107.501 39.8249 106.572 41.6799C105.684 43.4947 105.24 45.9142 105.24 48.9388C105.24 49.1001 105.28 49.8057 105.361 51.0559C105.482 52.2657 105.765 53.5158 106.209 54.8062Z" fill="black"/>
<path d="M136.853 61.8836H126.981C126.739 61.8836 126.598 61.7424 126.557 61.4601V61.3392C126.557 61.1375 126.678 61.0165 126.921 60.9762C128.293 60.7343 129.181 60.21 129.585 59.4035C129.989 58.5969 130.171 58.0122 130.13 57.6493V42.1034C130.13 41.2968 129.727 40.8734 128.919 40.8331L128.192 40.9541C128.031 40.9541 127.91 40.8734 127.829 40.7121L127.768 40.5306C127.768 40.4097 127.829 40.3088 127.95 40.2282L132.553 36.1149C132.714 35.9939 132.856 35.9335 132.977 35.9335C133.34 35.9335 133.582 36.1754 133.703 36.6593V39.8048C133.703 40.1677 133.925 40.3693 134.37 40.4097C134.571 40.4097 134.733 40.3088 134.854 40.1072C136.186 37.365 138.306 35.873 141.213 35.631L142.243 35.5705C144.907 35.5705 146.987 36.3972 148.48 38.0506C148.723 38.3329 148.844 38.6353 148.844 38.9579C148.844 39.3612 148.662 39.7039 148.299 39.9862C148.056 40.1879 147.754 40.2887 147.39 40.2887C146.906 40.2887 146.502 40.0669 146.179 39.6233C144.968 37.486 143.312 36.3972 141.213 36.3569H141.031C139.457 36.3569 137.943 37.2037 136.489 38.8974C135.076 40.5508 134.148 43.0914 133.703 46.5191V57.6493C133.703 58.0122 133.905 58.5969 134.309 59.4035C134.713 60.21 135.561 60.7343 136.853 60.9762C137.095 60.9762 137.236 61.0972 137.277 61.3392V61.4601C137.277 61.7021 137.135 61.8432 136.853 61.8836Z" fill="black"/>
<path d="M0.15625 75.2021H10.1563" stroke="black"/>
<path d="M27.6386 76.4124C27.5108 76.9313 27.2749 77.3703 26.9308 77.7295C26.5867 78.0787 26.164 78.3431 25.6626 78.5227C25.1612 78.7022 24.6058 78.792 23.9963 78.792C23.2 78.792 22.502 78.6174 21.9023 78.2682C21.3026 77.919 20.8356 77.4251 20.5014 76.7866C20.1671 76.1381 20 75.3698 20 74.4818C20 73.5939 20.1671 72.8306 20.5014 72.192C20.8356 71.5435 21.3026 71.0446 21.9023 70.6954C22.5118 70.3462 23.2245 70.1716 24.0405 70.1716C24.6304 70.1716 25.1563 70.2564 25.6184 70.4261C26.0804 70.5957 26.4687 70.8501 26.7833 71.1893C27.1077 71.5186 27.3437 71.9376 27.4912 72.4465L26.3704 72.9553C26.223 72.3567 25.9624 71.9177 25.5889 71.6383C25.2251 71.349 24.6992 71.2043 24.011 71.2043C23.4506 71.2043 22.9542 71.334 22.5216 71.5934C22.0989 71.8528 21.7696 72.227 21.5336 72.7158C21.2977 73.2047 21.1797 73.7934 21.1797 74.4818C21.1797 75.1703 21.2977 75.7589 21.5336 76.2478C21.7794 76.7367 22.1087 77.1109 22.5216 77.3703C22.9444 77.6297 23.4212 77.7594 23.952 77.7594C24.7188 77.7594 25.3087 77.6147 25.7216 77.3254C26.1345 77.036 26.395 76.602 26.5031 76.0233L27.6386 76.4124Z" fill="black"/>
<path d="M36.6377 77.6397H41.563V78.6723H35.458V70.2914H36.6377V77.6397Z" fill="black"/>
<path d="M51.2055 70.2914V78.6723H50.0258V70.2914H51.2055Z" fill="black"/>
<path d="M66.8452 70.2914V78.6723H65.2673L61.6692 72.8056L60.9614 71.5335H60.9466L61.0056 72.5812V78.6723H59.8701V70.2914H61.448L65.0461 76.173L65.7539 77.4301H65.7687L65.7097 76.3825V70.2914H66.8452Z" fill="black"/>
<path d="M76.6977 70.2914V78.6723H75.518V70.2914H76.6977Z" fill="black"/>
<path d="M91.0544 81.1716C90.5531 81.1716 90.1008 81.0868 89.6978 80.9172C89.2947 80.7476 88.9752 80.4732 88.7393 80.0941C88.5033 79.7149 88.3853 79.2111 88.3853 78.5825C88.3853 78.5626 88.3853 78.5426 88.3853 78.5227C88.3853 78.4927 88.3853 78.4678 88.3853 78.4478L89.3144 78.2682C89.3144 78.7771 89.3881 79.1662 89.5356 79.4356C89.683 79.705 89.8846 79.8895 90.1402 79.9893C90.3958 80.0891 90.6858 80.139 91.0102 80.139C91.3346 80.139 91.6295 80.0841 91.895 79.9744C92.1702 79.8746 92.3914 79.7499 92.5586 79.6002L92.9125 80.6179C92.7159 80.7775 92.4406 80.9072 92.0867 81.007C91.7426 81.1168 91.3985 81.1716 91.0544 81.1716ZM88.931 78.792C88.0953 78.792 87.3727 78.6174 86.7632 78.2682C86.1537 77.919 85.6818 77.4251 85.3476 76.7866C85.0232 76.1381 84.861 75.3698 84.861 74.4818C84.861 73.5939 85.0232 72.8306 85.3476 72.192C85.6818 71.5435 86.1537 71.0446 86.7632 70.6954C87.3727 70.3462 88.0953 70.1716 88.931 70.1716C89.7666 70.1716 90.4892 70.3462 91.0987 70.6954C91.7082 71.0446 92.1751 71.5435 92.4996 72.192C92.8338 72.8306 93.0009 73.5939 93.0009 74.4818C93.0009 75.3698 92.8338 76.1381 92.4996 76.7866C92.1751 77.4251 91.7082 77.919 91.0987 78.2682C90.4892 78.6174 89.7666 78.792 88.931 78.792ZM88.931 77.7594C89.5208 77.7594 90.032 77.6297 90.4646 77.3703C90.8971 77.1109 91.2314 76.7367 91.4673 76.2478C91.7033 75.7589 91.8212 75.1703 91.8212 74.4818C91.8212 73.7934 91.7033 73.2047 91.4673 72.7158C91.2314 72.227 90.8971 71.8528 90.4646 71.5934C90.032 71.334 89.5208 71.2043 88.931 71.2043C88.3411 71.2043 87.8299 71.334 87.3973 71.5934C86.9648 71.8528 86.6305 72.227 86.3946 72.7158C86.1586 73.2047 86.0407 73.7934 86.0407 74.4818C86.0407 75.1703 86.1586 75.7589 86.3946 76.2478C86.6305 76.7367 86.9648 77.1109 87.3973 77.3703C87.8299 77.6297 88.3411 77.7594 88.931 77.7594Z" fill="black"/>
<path d="M108.04 70.2914V75.4995C108.04 76.5871 107.741 77.4102 107.141 77.9689C106.541 78.5177 105.676 78.792 104.546 78.792C103.425 78.792 102.565 78.5177 101.965 77.9689C101.365 77.4102 101.065 76.5871 101.065 75.4995V70.2914H102.245V75.3349C102.245 76.153 102.432 76.7617 102.805 77.1607C103.189 77.5598 103.769 77.7594 104.546 77.7594C105.332 77.7594 105.912 77.5598 106.286 77.1607C106.669 76.7617 106.861 76.153 106.861 75.3349V70.2914H108.04Z" fill="black"/>
<path d="M116.615 78.6723V70.2914H122.808V71.324H117.795V73.9131H121.717V74.9458H117.795V77.6397H123V78.6723H116.615Z" fill="black"/>
<path d="M133.844 75.2021L143.844 75.2021" stroke="black"/>
</svg>